<svg xmlns="http://www.w3.org/2000/svg" xmlns:xlink="http://www.w3.org/1999/xlink" width="321" zoomAndPan="magnify" viewBox="0 0 240.75 141.750002" height="188" preserveAspectRatio="xMidYMid meet" version="1.0"><defs><g/></defs><g fill="#ffffff" fill-opacity="1"><g transform="translate(9.711382, 65.675105)"><g><path d="M 16.34375 -2.765625 L 6.015625 -2.765625 C 5.765625 -2.765625 5.640625 -2.882812 5.640625 -3.125 L 5.640625 -22.3125 C 5.640625 -22.550781 5.765625 -22.671875 6.015625 -22.671875 L 16.34375 -22.671875 L 16.34375 -25.4375 L 7.40625 -25.4375 C 4.84375 -25.4375 3.28125 -24.648438 2.71875 -23.078125 C 2.53125 -22.484375 2.4375 -21.785156 2.4375 -20.984375 L 2.4375 -4.453125 C 2.4375 -2.128906 3.375 -0.722656 5.25 -0.234375 C 5.863281 -0.078125 6.582031 0 7.40625 0 L 16.34375 0 Z M 16.34375 -2.765625 "/></g></g></g><g fill="#ffffff" fill-opacity="1"><g transform="translate(43.341452, 65.675105)"><g><path d="M 6.046875 0 L 6.015625 -10.453125 L 12.5 -10.453125 C 12.820312 -10.429688 13.035156 -10.285156 13.140625 -10.015625 L 16.578125 0 L 19.703125 0 L 16.78125 -8.328125 C 16.382812 -9.453125 15.929688 -10.238281 15.421875 -10.6875 C 17.742188 -11.25 18.921875 -12.828125 18.953125 -15.421875 L 18.953125 -20.703125 C 18.890625 -23.992188 17.113281 -25.625 13.625 -25.59375 L 2.96875 -25.4375 L 2.96875 0 Z M 15.265625 -22.90625 C 15.554688 -22.851562 15.710938 -22.679688 15.734375 -22.390625 L 15.734375 -13.578125 C 15.679688 -13.253906 15.523438 -13.082031 15.265625 -13.0625 L 6.015625 -13.0625 L 6.015625 -22.90625 Z M 15.265625 -22.90625 "/></g></g></g><g fill="#ffffff" fill-opacity="1"><g transform="translate(80.936612, 65.675105)"><g><path d="M 11.96875 0 L 11.96875 -9.21875 C 13.070312 -9.320312 13.875 -9.785156 14.375 -10.609375 C 14.613281 -11.035156 14.9375 -11.734375 15.34375 -12.703125 L 20.421875 -25.4375 L 17.296875 -25.4375 L 12.09375 -12.21875 C 11.988281 -11.976562 11.84375 -11.859375 11.65625 -11.859375 L 9.453125 -11.859375 C 9.234375 -11.910156 9.085938 -12.03125 9.015625 -12.21875 L 3.765625 -25.46875 L 0.484375 -25.46875 L 5.5625 -12.703125 C 6.175781 -11.117188 6.804688 -10.128906 7.453125 -9.734375 C 7.847656 -9.492188 8.34375 -9.332031 8.9375 -9.25 L 8.9375 0 Z M 11.96875 0 "/></g></g></g><g fill="#ffffff" fill-opacity="1"><g transform="translate(118.291462, 65.675105)"><g><path d="M 6.046875 0 L 6.015625 -9.9375 L 13.578125 -9.9375 C 17.097656 -9.988281 18.875 -11.628906 18.90625 -14.859375 L 18.90625 -20.703125 C 18.851562 -23.992188 17.078125 -25.625 13.578125 -25.59375 L 2.96875 -25.4375 L 2.96875 0 Z M 15.21875 -22.90625 C 15.507812 -22.851562 15.671875 -22.679688 15.703125 -22.390625 L 15.703125 -13.09375 C 15.648438 -12.769531 15.488281 -12.597656 15.21875 -12.578125 L 6.015625 -12.578125 L 6.015625 -22.90625 Z M 15.21875 -22.90625 "/></g></g></g><g fill="#ffffff" fill-opacity="1"><g transform="translate(154.685084, 65.675105)"><g><path d="M 9.6875 0 L 9.6875 -22.75 L 16.109375 -22.75 L 16.109375 -25.4375 L 0.203125 -25.4375 L 0.203125 -22.75 L 6.609375 -22.75 L 6.609375 0 Z M 9.6875 0 "/></g></g></g><g fill="#ffffff" fill-opacity="1"><g transform="translate(187.393974, 65.675105)"><g><path d="M 6.484375 0 L 6.484375 -25.4375 L 3.4375 -25.4375 L 3.4375 0 Z M 6.484375 0 "/></g></g></g><g fill="#ffffff" fill-opacity="1"><g transform="translate(213.734677, 65.675105)"><g><path d="M 16.34375 -2.765625 L 6.015625 -2.765625 C 5.765625 -2.765625 5.640625 -2.882812 5.640625 -3.125 L 5.640625 -22.3125 C 5.640625 -22.550781 5.765625 -22.671875 6.015625 -22.671875 L 16.34375 -22.671875 L 16.34375 -25.4375 L 7.40625 -25.4375 C 4.84375 -25.4375 3.28125 -24.648438 2.71875 -23.078125 C 2.53125 -22.484375 2.4375 -21.785156 2.4375 -20.984375 L 2.4375 -4.453125 C 2.4375 -2.128906 3.375 -0.722656 5.25 -0.234375 C 5.863281 -0.078125 6.582031 0 7.40625 0 L 16.34375 0 Z M 16.34375 -2.765625 "/></g></g></g><g fill="#ffffff" fill-opacity="1"><g transform="translate(9.433252, 92.244836)"><g><path d="M 3.296875 0 L 3.28125 -5.703125 L 6.8125 -5.703125 C 6.988281 -5.691406 7.109375 -5.613281 7.171875 -5.46875 L 9.046875 0 L 10.75 0 L 9.15625 -4.546875 C 8.9375 -5.160156 8.6875 -5.585938 8.40625 -5.828125 C 9.675781 -6.140625 10.316406 -7 10.328125 -8.40625 L 10.328125 -11.296875 C 10.304688 -13.085938 9.335938 -13.976562 7.421875 -13.96875 L 1.609375 -13.875 L 1.609375 0 Z M 8.328125 -12.5 C 8.484375 -12.46875 8.570312 -12.375 8.59375 -12.21875 L 8.59375 -7.40625 C 8.5625 -7.226562 8.472656 -7.132812 8.328125 -7.125 L 3.28125 -7.125 L 3.28125 -12.5 Z M 8.328125 -12.5 "/></g></g></g><g fill="#ffffff" fill-opacity="1"><g transform="translate(29.941765, 92.244836)"><g><path d="M 8.828125 -12.5 C 8.941406 -12.46875 9.007812 -12.398438 9.03125 -12.296875 L 9.03125 -1.578125 C 9 -1.460938 8.929688 -1.394531 8.828125 -1.375 L 3.28125 -1.375 C 3.164062 -1.40625 3.097656 -1.472656 3.078125 -1.578125 L 3.078125 -12.296875 C 3.109375 -12.421875 3.175781 -12.488281 3.28125 -12.5 Z M 1.359375 -2.296875 C 1.359375 -1.015625 1.859375 -0.242188 2.859375 0.015625 C 3.191406 0.109375 3.59375 0.15625 4.0625 0.15625 L 8.0625 0.15625 C 9.476562 0.15625 10.335938 -0.300781 10.640625 -1.21875 C 10.722656 -1.53125 10.765625 -1.890625 10.765625 -2.296875 L 10.765625 -11.609375 C 10.765625 -12.867188 10.257812 -13.628906 9.25 -13.890625 C 8.90625 -13.984375 8.507812 -14.03125 8.0625 -14.03125 L 4.0625 -14.03125 C 2.632812 -14.03125 1.773438 -13.5625 1.484375 -12.625 C 1.398438 -12.320312 1.359375 -11.984375 1.359375 -11.609375 Z M 1.359375 -2.296875 "/></g></g></g><g fill="#ffffff" fill-opacity="1"><g transform="translate(51.018381, 92.244836)"><g><path d="M 8.828125 -12.5 C 8.941406 -12.46875 9.007812 -12.398438 9.03125 -12.296875 L 9.03125 -1.578125 C 9 -1.460938 8.929688 -1.394531 8.828125 -1.375 L 3.28125 -1.375 C 3.164062 -1.40625 3.097656 -1.472656 3.078125 -1.578125 L 3.078125 -12.296875 C 3.109375 -12.421875 3.175781 -12.488281 3.28125 -12.5 Z M 1.359375 -2.296875 C 1.359375 -1.015625 1.859375 -0.242188 2.859375 0.015625 C 3.191406 0.109375 3.59375 0.15625 4.0625 0.15625 L 8.0625 0.15625 C 9.476562 0.15625 10.335938 -0.300781 10.640625 -1.21875 C 10.722656 -1.53125 10.765625 -1.890625 10.765625 -2.296875 L 10.765625 -11.609375 C 10.765625 -12.867188 10.257812 -13.628906 9.25 -13.890625 C 8.90625 -13.984375 8.507812 -14.03125 8.0625 -14.03125 L 4.0625 -14.03125 C 2.632812 -14.03125 1.773438 -13.5625 1.484375 -12.625 C 1.398438 -12.320312 1.359375 -11.984375 1.359375 -11.609375 Z M 1.359375 -2.296875 "/></g></g></g><g fill="#ffffff" fill-opacity="1"><g transform="translate(72.094995, 92.244836)"><g><path d="M 11.46875 -13.875 L 10.96875 -13.875 L 7.078125 -6.359375 L 3.671875 -13.0625 C 3.441406 -13.519531 3.171875 -13.773438 2.859375 -13.828125 C 2.742188 -13.859375 2.609375 -13.875 2.453125 -13.875 L 1.5 -13.875 L 1.5 0 L 3.015625 0 L 3.015625 -11.234375 L 6.484375 -4.40625 L 7.453125 -4.40625 L 11.015625 -11.234375 L 11.015625 0 L 12.625 0 L 12.625 -12.65625 C 12.625 -13.351562 12.363281 -13.753906 11.84375 -13.859375 C 11.726562 -13.867188 11.601562 -13.875 11.46875 -13.875 Z M 11.46875 -13.875 "/></g></g></g></svg>