<svg xmlns="http://www.w3.org/2000/svg" xmlns:xlink="http://www.w3.org/1999/xlink" width="1920" zoomAndPan="magnify" viewBox="0 0 1440 809.999993" height="1080" preserveAspectRatio="xMidYMid meet" version="1.0"><defs><clipPath id="27f6e9fa53"><path d="M 822 81 L 929 81 L 929 727.214844 L 822 727.214844 Z M 822 81 " clip-rule="nonzero"/></clipPath><clipPath id="98f709de03"><path d="M 617.292969 621 L 929 621 L 929 727.214844 L 617.292969 727.214844 Z M 617.292969 621 " clip-rule="nonzero"/></clipPath><clipPath id="7af423e05a"><path d="M 226 336 L 332.578125 336 L 332.578125 727.214844 L 226 727.214844 Z M 226 336 " clip-rule="nonzero"/></clipPath><clipPath id="f9409dc34a"><path d="M 1107 336 L 1214 336 L 1214 727.214844 L 1107 727.214844 Z M 1107 336 " clip-rule="nonzero"/></clipPath><clipPath id="33b6ea8d34"><path d="M 1022.21875 426 L 1438.429688 426 L 1438.429688 533 L 1022.21875 533 Z M 1022.21875 426 " clip-rule="nonzero"/></clipPath><clipPath id="e68af9d1e7"><path d="M 1132 81 L 1438.429688 81 L 1438.429688 477 L 1132 477 Z M 1132 81 " clip-rule="nonzero"/></clipPath></defs><path fill="#545454" d="M 617.441406 81 L 617.441406 621.394531 L 511.644531 621.394531 L 511.644531 81 L 617.441406 81 " fill-opacity="1" fill-rule="nonzero"/><g clip-path="url(#27f6e9fa53)"><path fill="#545454" d="M 928.261719 81 L 928.261719 727.214844 L 822.441406 727.214844 L 822.441406 81 L 928.261719 81 " fill-opacity="1" fill-rule="nonzero"/></g><path fill="#545454" d="M 928.261719 81 L 928.261719 186.8125 L 511.636719 186.8125 L 511.636719 81 L 928.261719 81 " fill-opacity="1" fill-rule="nonzero"/><g clip-path="url(#98f709de03)"><path fill="#545454" d="M 928.253906 621.394531 L 928.253906 727.214844 L 617.441406 727.214844 L 617.441406 621.394531 L 928.253906 621.394531 " fill-opacity="1" fill-rule="nonzero"/></g><g clip-path="url(#7af423e05a)"><path fill="#545454" d="M 332.132812 727.214844 L 226.320312 727.214844 L 226.320312 336.082031 L 332.132812 336.082031 L 332.132812 727.214844 " fill-opacity="1" fill-rule="nonzero"/></g><path fill="#545454" d="M 1.464844 532.597656 L 1.464844 426.785156 L 417.160156 426.785156 L 417.160156 532.597656 L 1.464844 532.597656 " fill-opacity="1" fill-rule="nonzero"/><path fill="#545454" d="M 186.941406 81.289062 L 1.464844 426.777344 L 94.699219 476.824219 L 307.039062 81.289062 L 186.941406 81.289062 " fill-opacity="1" fill-rule="nonzero"/><g clip-path="url(#f9409dc34a)"><path fill="#545454" d="M 1107.765625 727.214844 L 1213.578125 727.214844 L 1213.578125 336.082031 L 1107.765625 336.082031 L 1107.765625 727.214844 " fill-opacity="1" fill-rule="nonzero"/></g><g clip-path="url(#33b6ea8d34)"><path fill="#545454" d="M 1438.429688 532.597656 L 1438.429688 426.785156 L 1022.738281 426.785156 L 1022.738281 532.597656 L 1438.429688 532.597656 " fill-opacity="1" fill-rule="nonzero"/></g><g clip-path="url(#e68af9d1e7)"><path fill="#545454" d="M 1252.957031 81.289062 L 1438.429688 426.777344 L 1345.199219 476.824219 L 1132.859375 81.289062 L 1252.957031 81.289062 " fill-opacity="1" fill-rule="nonzero"/></g><path fill="#fe0000" d="M 401.085938 655.414062 C 401.085938 656.328125 400.726562 656.960938 399.628906 656.960938 L 377.054688 656.960938 L 377.054688 671.039062 L 394.234375 671.039062 C 395.148438 671.039062 395.699219 671.582031 395.699219 672.597656 L 395.699219 681.644531 C 395.699219 682.648438 395.148438 683.191406 394.234375 683.191406 L 377.054688 683.191406 L 377.054688 696.71875 L 399.628906 696.71875 C 400.726562 696.71875 401.085938 697.171875 401.085938 698.183594 L 401.085938 707.320312 C 401.085938 708.234375 400.726562 708.789062 399.628906 708.789062 L 365.992188 708.789062 C 365.167969 708.789062 364.625 708.234375 364.625 707.320312 L 364.625 646.269531 C 364.625 645.363281 365.167969 644.808594 365.992188 644.808594 L 399.628906 644.808594 C 400.726562 644.808594 401.085938 645.363281 401.085938 646.269531 L 401.085938 655.414062 " fill-opacity="1" fill-rule="nonzero"/><path fill="#fe0000" d="M 430.339844 677.714844 C 432.714844 677.714844 434 676.429688 434 674.054688 L 434 660.257812 C 434 657.875 432.714844 656.597656 430.339844 656.597656 L 421.195312 656.597656 L 421.195312 677.714844 Z M 445.878906 676.335938 C 445.878906 681.644531 444.140625 685.382812 440.753906 687.492188 L 445.507812 707.140625 C 445.789062 708.234375 445.234375 708.789062 444.230469 708.789062 L 435.277344 708.789062 C 434.363281 708.789062 433.898438 708.328125 433.71875 707.503906 L 429.335938 689.503906 L 421.195312 689.503906 L 421.195312 707.320312 C 421.195312 708.234375 420.652344 708.789062 419.738281 708.789062 L 410.777344 708.789062 C 409.871094 708.789062 409.316406 708.234375 409.316406 707.320312 L 409.316406 646.269531 C 409.316406 645.363281 409.871094 644.808594 410.777344 644.808594 L 432.714844 644.808594 C 441.304688 644.808594 445.878906 649.375 445.878906 657.964844 L 445.878906 676.335938 " fill-opacity="1" fill-rule="nonzero"/><path fill="#fe0000" d="M 476.039062 677.714844 C 478.417969 677.714844 479.695312 676.429688 479.695312 674.054688 L 479.695312 660.257812 C 479.695312 657.875 478.417969 656.597656 476.039062 656.597656 L 466.902344 656.597656 L 466.902344 677.714844 Z M 491.578125 676.335938 C 491.578125 681.644531 489.839844 685.382812 486.460938 687.492188 L 491.214844 707.140625 C 491.484375 708.234375 490.933594 708.789062 489.929688 708.789062 L 480.972656 708.789062 C 480.058594 708.789062 479.605469 708.328125 479.425781 707.503906 L 475.035156 689.503906 L 466.902344 689.503906 L 466.902344 707.320312 C 466.902344 708.234375 466.351562 708.789062 465.4375 708.789062 L 456.480469 708.789062 C 455.566406 708.789062 455.023438 708.234375 455.023438 707.320312 L 455.023438 646.269531 C 455.023438 645.363281 455.566406 644.808594 456.480469 644.808594 L 478.417969 644.808594 C 487.003906 644.808594 491.578125 649.375 491.578125 657.964844 L 491.578125 676.335938 " fill-opacity="1" fill-rule="nonzero"/><path fill="#fe0000" d="M 522.105469 696.992188 C 524.480469 696.992188 525.765625 695.804688 525.765625 693.339844 L 525.765625 660.257812 C 525.765625 657.875 524.480469 656.597656 522.105469 656.597656 L 516.257812 656.597656 C 513.886719 656.597656 512.601562 657.875 512.601562 660.257812 L 512.601562 693.339844 C 512.601562 695.804688 513.886719 696.992188 516.257812 696.992188 Z M 500.722656 657.964844 C 500.722656 649.375 505.292969 644.808594 513.886719 644.808594 L 524.117188 644.808594 C 532.710938 644.808594 537.28125 649.375 537.28125 657.964844 L 537.28125 695.621094 C 537.28125 704.214844 532.710938 708.789062 524.117188 708.789062 L 513.886719 708.789062 C 505.292969 708.789062 500.722656 704.214844 500.722656 695.621094 L 500.722656 657.964844 " fill-opacity="1" fill-rule="nonzero"/><path fill="#fe0000" d="M 567.441406 677.714844 C 569.816406 677.714844 571.101562 676.429688 571.101562 674.054688 L 571.101562 660.257812 C 571.101562 657.875 569.816406 656.597656 567.441406 656.597656 L 558.296875 656.597656 L 558.296875 677.714844 Z M 582.980469 676.335938 C 582.980469 681.644531 581.242188 685.382812 577.863281 687.492188 L 582.617188 707.140625 C 582.890625 708.234375 582.335938 708.789062 581.332031 708.789062 L 572.378906 708.789062 C 571.460938 708.789062 571.007812 708.328125 570.820312 707.503906 L 566.4375 689.503906 L 558.296875 689.503906 L 558.296875 707.320312 C 558.296875 708.234375 557.753906 708.789062 556.839844 708.789062 L 547.882812 708.789062 C 546.96875 708.789062 546.417969 708.234375 546.417969 707.320312 L 546.417969 646.269531 C 546.417969 645.363281 546.96875 644.808594 547.882812 644.808594 L 569.816406 644.808594 C 578.40625 644.808594 582.980469 649.375 582.980469 657.964844 L 582.980469 676.335938 " fill-opacity="1" fill-rule="nonzero"/></svg>